# xmcd
#
# Track frame offsets: 
#        150
#        16390
#        35887
#        52290
#        77165
#        90567
#        108275
#        128475
#        142062
#        155840
#        190032
#        222530
#
# Disc length: 4440 seconds
#
# Revision: 1
# Processed by: cddbd v1.5.2PL0 Copyright (c) Steve Scherf et al.
# Submitted via: ExactAudioCopy v0.99pb5
#
DISCID=ae11560c
DTITLE=Joss Stone - The Sou Sessions (CCCD)
DYEAR=2004
DGENRE=Soul
TTITLE0=The Chokin' Kind
TTITLE1=Super Duper Live (Are You Diggin' On Me?) Pt.1
TTITLE2=Feel In Love With A Boy
TTITLE3=Victim Of A Foolish Heart
TTITLE4=Dirty Man
TTITLE5=Some Kind Of Wonderful
TTITLE6=I've Fallen In Love With You
TTITLE7=I Had A Dream
TTITLE8=All The King's Horses
TTITLE9=For Hte Love Of You Pts.1 &2
TTITLE10=The Player [Bonus Track]
TTITLE11=Data
EXTD=
EXTT0=
EXTT1=
EXTT2=
EXTT3=
EXTT4=
EXTT5=
EXTT6=
EXTT7=
EXTT8=
EXTT9=
EXTT10=
EXTT11=
PLAYORDER=
